# xmcd
#
# Track frame offsets:
# 182
# 15022
# 28042
# 40627
# 55037
# 65220
# 78145
# 90960
# 103757
# 116725
# 131122
# 143392
# 156945
# 173022
# 189100
# 203392
#
# Disc length: 2871 seconds
#
#
# Revision: 0
# Processed by: cddbd v1.5.2PL0 Copyright (c) Steve Scherf et al.
# Submitted via: FreeRIP 2.944 
#
DISCID=b80b3510
DTITLE=Varius - Hit Parade '64 CD2
DYEAR=1994
DGENRE=Blues
TTITLE0=Mina-Un Anno d'Amore
TTITLE1=Ornella Vanoni-Non dirmi niente
TTITLE2=Iva Zanicchi-Come Ti Vorrei
TTITLE3=Petula Clark-Quelli che hanno un Cuore
TTITLE4=Francoise Hardy-Il Tuo migliore Amico
TTITLE5=Pino Donaggio-Motivo d'Amore
TTITLE6=Edoardo Vianello-Da Molto Lontano
TTITLE7=Fred Buongusto-Una Rotonda sul Mare
TTITLE8=Neil Sedaka-La Notte e' fatta per Amare
TTITLE9=Gianni Morandi-Non son degno di Te
TTITLE10=Equipe 84-Quel che ti ho Dato
TTITLE11=Salvatore Adamo-Cade la Neve
TTITLE12=Nicola di Bari-Amore ritorna a Casa
TTITLE13=Domenico Modugno-Tu si na cosa Grande
TTITLE14=Mina-E se Domani
TTITLE15=Udo Jurgens-Peccato che sia finita Cosi'
EXTD=
EXTT0=
EXTT1=
EXTT2=
EXTT3=
EXTT4=
EXTT5=
EXTT6=
EXTT7=
EXTT8=
EXTT9=
EXTT10=
EXTT11=
EXTT12=
EXTT13=
EXTT14=
EXTT15=
PLAYORDER=
